<?xml version="1.0" encoding="utf-8"?>
<!-- Generator: Adobe Illustrator 27.9.0, SVG Export Plug-In . SVG Version: 6.00 Build 0)  -->
<svg version="1.1" id="Layer_1" xmlns="http://www.w3.org/2000/svg" xmlns:xlink="http://www.w3.org/1999/xlink" x="0px" y="0px"
	 viewBox="0 0 3369.18 286.68" style="enable-background:new 0 0 3369.18 286.68;" xml:space="preserve">
<style type="text/css">
	.st0{fill:none;}
	.st1{fill:#414042;}
	.st2{fill:#D42027;}
	.st3{font-family:'MyriadPro-Regular';}
	.st4{font-size:12px;}
</style>
<rect x="408.9" y="127.43" class="st0" width="719.18" height="15.07"/>
<rect x="950" y="197.29" class="st0" width="42.33" height="41.1"/>
<g>
	<g>
		<path class="st1" d="M26.85,22.22h52.9c39.82,0,58.98,15.5,58.98,62.62v74.48c0,42.26-10.94,65.36-51.98,65.36h-59.9V22.22z
			 M75.19,188.51h4.26c7.6,0,10.34-4.26,10.34-13.38V71.47c0-10.64-3.95-13.07-10.64-13.07H75.2v130.11H75.19z"/>
		<path class="st1" d="M204.69,60.83v146.22c0,36.48,2.43,70.22-47.12,70.22c-5.78,0-10.94-0.61-16.11-1.52v-40.13
			c0.61,0,2.43,0,5.78,0c6.08,0,9.12-1.82,9.12-8.82V60.83H204.69z M156.35,50.8V13.1h48.34v37.7
			C204.69,50.8,156.35,50.8,156.35,50.8z"/>
		<path class="st1" d="M332.06,112.21v61.71c0,38.3-22.5,53.5-56.54,53.5c-33.44,0-54.72-15.2-54.72-53.5v-63.23
			c0-36.78,24.02-52.29,54.72-52.29C308.35,58.4,332.06,72.38,332.06,112.21z M269.13,106.43v71.44c0,8.21,2.13,12.16,7.3,12.16
			c6.08,0,7.3-5.17,7.3-12.16v-71.74c0-6.69-1.52-11.25-7.3-11.25C270.96,94.88,269.13,99.74,269.13,106.43z"/>
		<path class="st1" d="M459.13,167.23c0,31.62,0,47.73,0.61,57.46h-46.82c-0.91-4.26-1.22-9.42-1.52-12.77
			c-8.51,11.55-18.85,15.5-31.31,15.5c-16.72,0-32.22-7.6-32.22-41.34V60.83h48.34v115.22c0,6.99,1.82,11.25,6.99,11.25
			c6.08,0,7.6-4.26,7.6-14.59V60.83h48.34L459.13,167.23L459.13,167.23z"/>
		<path class="st1" d="M476.15,115.25c0-39.82-0.3-50.77-0.61-54.42h45.6c0.91,3.95,1.22,8.51,1.52,11.86
			c6.69-9.73,16.42-14.29,28.27-14.29c17.63,0,23.41,8.21,26.75,14.9c6.99-8.21,16.72-14.9,31.62-14.9
			c26.75,0,34.35,21.28,34.35,43.17v123.12h-47.12V109.47c0-6.38-1.52-10.94-6.38-10.94c-4.56,0-6.99,3.04-6.99,11.55v114.61h-47.12
			V108.86c0-8.21-2.43-10.34-6.38-10.34c-4.26,0-6.38,3.34-6.38,11.25v114.91h-47.12V115.25H476.15z"/>
		<path class="st1" d="M660.68,13.1h48.34v61.1c8.21-13.07,19.76-15.81,29.18-15.81c24.62,0,33.74,16.11,33.74,46.21v67.79
			c0,29.79-5.17,55.02-36.78,55.02c-15.81,0-23.71-9.42-26.75-16.72c0,5.17-0.61,10.64-0.91,13.98h-47.12
			c0.3-6.69,0.3-30.7,0.3-38.91L660.68,13.1L660.68,13.1z M723.61,173.31v-60.19c0-8.51-0.61-14.59-7.3-14.59
			c-6.38,0-7.3,5.17-7.3,13.68v60.5c0,12.77,3.34,14.59,7.6,14.59C719.35,187.3,723.61,186.38,723.61,173.31z"/>
		<path class="st1" d="M897.8,112.21v61.71c0,38.3-22.5,53.5-56.54,53.5c-33.44,0-54.72-15.2-54.72-53.5v-63.23
			c0-36.78,24.02-52.29,54.72-52.29C874.09,58.4,897.8,72.38,897.8,112.21z M834.87,106.43v71.44c0,8.21,2.13,12.16,7.3,12.16
			c6.08,0,7.3-5.17,7.3-12.16v-71.74c0-6.69-1.52-11.25-7.3-11.25C836.69,94.88,834.87,99.74,834.87,106.43z"/>
		<path class="st1" d="M1000.85,139.26v85.42h-48.03V22.22h59.89c39.52,0,51.98,20.06,51.98,51.98v7.3c0,22.8-7.6,34.35-19.46,40.43
			c14.59,6.69,18.54,17.94,18.54,47.42c0,24.32-0.3,47.42,0.61,55.33h-46.82c-2.13-3.65-2.74-17.63-2.74-63.84
			c0-20.06-1.82-21.58-11.55-21.58L1000.85,139.26L1000.85,139.26z M1001.15,103.39h3.65c7.9,0,11.25-2.74,11.25-15.5V71.78
			c0-11.25-2.74-13.68-12.16-13.68h-2.74L1001.15,103.39L1001.15,103.39z"/>
		<path class="st1" d="M1127.62,153.86v24.93c0,8.51,1.82,11.86,6.69,11.86c5.17,0,7.6-2.74,7.6-12.77v-9.12h46.51v5.17
			c0,31.31-12.46,53.5-55.33,53.5c-39.22,0-54.42-18.85-54.42-53.5V111.6c0-36.18,22.8-53.2,55.33-53.2
			c31.92,0,54.72,15.2,54.72,53.2c0,11.86,0,31.62,0,42.26H1127.62z M1141.6,123.76v-16.72c0-8.21-0.91-13.07-6.99-13.07
			c-4.86,0-6.99,4.56-6.99,13.07v16.72H1141.6z"/>
		<path class="st1" d="M1306.37,161.46v12.16c0,33.44-10.34,53.81-53.2,53.81c-36.78,0-51.38-16.72-51.38-55.63v-59.9
			c0-31.62,14.59-53.5,53.5-53.5c43.17,0,51.98,24.93,51.98,51.98v11.86h-44.99v-14.59c0-9.12-1.22-12.77-6.08-12.77
			c-5.47,0-6.08,4.56-6.08,12.16v71.44c0,7.9,1.22,11.86,6.08,11.86c5.17,0,6.08-4.56,6.08-14.59v-14.29L1306.37,161.46
			L1306.37,161.46z"/>
		<path class="st1" d="M1432.53,167.23c0,31.62,0,47.73,0.61,57.46h-46.82c-0.91-4.26-1.22-9.42-1.52-12.77
			c-8.51,11.55-18.85,15.5-31.31,15.5c-16.72,0-32.22-7.6-32.22-41.34V60.83h48.34v115.22c0,6.99,1.82,11.25,6.99,11.25
			c6.08,0,7.6-4.26,7.6-14.59V60.83h48.34L1432.53,167.23L1432.53,167.23z"/>
		<path class="st1" d="M1497.89,213.75v61.41h-48.34v-167.2c0-21.89-0.3-41.65-0.61-47.12h46.82c0.3,3.34,1.22,9.42,1.52,15.2
			c4.56-8.51,14.59-17.63,31.31-17.63c22.5,0,32.22,13.68,32.22,42.26V180c0,25.23-6.69,47.42-37.7,47.42
			C1517.95,227.42,1504.57,225.9,1497.89,213.75z M1512.48,174.53v-64.45c0-7.3-2.13-11.86-6.99-11.86c-5.78,0-7.6,4.86-7.6,14.59
			v59.58c0,9.12,1.52,14.59,6.99,14.59C1508.83,186.99,1512.48,184.86,1512.48,174.53z"/>
		<path class="st1" d="M1624.35,153.86v24.93c0,8.51,1.82,11.86,6.69,11.86c5.17,0,7.6-2.74,7.6-12.77v-9.12h46.51v5.17
			c0,31.31-12.46,53.5-55.33,53.5c-39.22,0-54.42-18.85-54.42-53.5V111.6c0-36.18,22.8-53.2,55.33-53.2
			c31.92,0,54.72,15.2,54.72,53.2c0,11.86,0,31.62,0,42.26H1624.35z M1638.33,123.76v-16.72c0-8.21-0.91-13.07-6.99-13.07
			c-4.86,0-6.99,4.56-6.99,13.07v16.72H1638.33z"/>
		<path class="st1" d="M1699.74,116.77c0-29.18-0.3-47.42-0.61-55.94h46.51c0.61,4.26,1.52,14.29,1.52,20.37
			c4.56-12.77,15.2-22.5,30.1-22.8v56.24c-20.98,0-29.18,4.86-29.18,20.37v89.68h-48.34V116.77z"/>
		<path class="st1" d="M1897.34,182.74c0,22.8,0.61,33.74,1.52,41.95h-46.21c-1.52-2.43-2.43-9.73-2.74-12.77
			c-7.3,11.55-18.24,14.9-29.49,14.9c-25.23,0-34.96-22.5-34.96-48.34v-3.34c0-43.17,28.58-53.2,60.5-53.2c1.52,0,1.52,0,2.43,0
			V103.7c0-8.82-2.13-10.94-6.38-10.94s-6.38,2.74-6.38,12.46v6.69h-45.3v-4.26c0-36.48,19.76-49.25,54.11-49.25
			c32.22,0,52.9,11.86,52.9,43.17L1897.34,182.74L1897.34,182.74z M1848.39,152.64c-1.22,0-1.52,0-2.13,0
			c-7.9,0-12.46,5.47-12.46,18.24v1.22c0,12.46,3.04,15.81,7.6,15.81c5.17,0,6.99-4.56,6.99-12.77V152.64z"/>
		<path class="st1" d="M1906.46,60.83h14.9V27.09h47.42v33.74h16.42V104h-16.42v70.83c0,7.3,1.22,9.73,9.42,9.73
			c0.91,0,3.04,0,4.86-0.3v38.91c-9.12,2.74-21.89,3.04-27.36,3.04c-28.58,0-35.57-12.16-35.57-39.52V104h-13.68L1906.46,60.83
			L1906.46,60.83z"/>
		<path class="st1" d="M1998.56,13.1h48.34v37.7h-48.34V13.1z M1998.56,60.83h48.34v163.86h-48.34V60.83z"/>
		<path class="st1" d="M2173.97,112.21v61.71c0,38.3-22.5,53.5-56.54,53.5c-33.44,0-54.72-15.2-54.72-53.5v-63.23
			c0-36.78,24.02-52.29,54.72-52.29C2150.26,58.4,2173.97,72.38,2173.97,112.21z M2111.04,106.43v71.44c0,8.21,2.13,12.16,7.3,12.16
			c6.08,0,7.3-5.17,7.3-12.16v-71.74c0-6.69-1.52-11.25-7.3-11.25C2112.87,94.88,2111.04,99.74,2111.04,106.43z"/>
		<path class="st1" d="M2189.77,107.04c0-21.89-0.3-42.26-0.61-46.21h46.51c0.91,5.17,1.22,9.12,1.52,12.77
			c4.56-6.08,13.98-15.2,31.31-15.2c24.62,0,32.53,16.72,32.53,40.43v125.86h-48.34v-114.3c0-5.17-0.61-11.86-6.69-11.86
			c-5.47,0-7.9,3.34-7.9,13.07v113.09h-48.34V107.04H2189.77z"/>
	</g>
</g>
<text transform="matrix(1 0 0 1 1141.6 166.785)" class="st2 st3 st4">Djoumbo</text>
</svg>
